<svg data-v-fde0c5aa="" xmlns="http://www.w3.org/2000/svg" viewBox="0 0 300 300" class="iconLeftSlogan"><!----><defs data-v-fde0c5aa=""><!----></defs><rect data-v-fde0c5aa="" fill="#1E100D" x="0" y="0" width="300px" height="300px" class="logo-background-square"></rect><defs data-v-fde0c5aa=""><!----></defs><g data-v-fde0c5aa="" id="13a1008a-f108-46c4-bf80-04ee6dce4e25" fill="#ffffff" transform="matrix(2.3790850529322234,0,0,2.3790850529322234,113.94797118700525,120.71751560060687)"><path d="M7.45 6.66C7.45 4.56 6.10 3.54 4.24 3.54C3.29 3.54 2.41 3.57 1.36 3.58L1.27 3.68L1.27 13.16C1.48 13.20 1.79 13.22 2.00 13.22C2.24 13.22 2.53 13.20 2.76 13.16L2.76 9.79L4.24 9.79C6.12 9.79 7.45 8.71 7.45 6.66ZM2.76 4.72C3.22 4.73 3.79 4.73 4.19 4.73C5.59 4.73 5.89 5.81 5.89 6.66C5.89 7.50 5.59 8.60 4.19 8.60C3.92 8.60 3.28 8.61 2.76 8.61ZM8.43 6.92C8.67 7.14 8.95 7.62 8.95 8.36L8.95 13.16C9.14 13.20 9.41 13.22 9.67 13.22C9.93 13.22 10.19 13.20 10.39 13.16L10.39 8.60C10.68 8.02 11.13 7.53 11.89 7.53C12.08 7.55 12.28 7.55 12.46 7.60C12.71 7.20 12.81 6.62 12.81 6.23C12.54 6.17 12.32 6.15 12.07 6.15C11.13 6.15 10.56 6.68 10.23 7.39C10.04 6.73 9.62 6.29 8.96 6.15C8.72 6.30 8.50 6.65 8.43 6.92ZM19.24 12.52C18.91 12.24 18.84 11.84 18.84 11.31L18.84 8.44C18.84 6.85 17.93 6.10 16.55 6.10C15.61 6.10 14.43 6.40 13.65 6.75C13.66 7.11 13.83 7.57 14.07 7.80C14.80 7.52 15.57 7.27 16.27 7.27C17.00 7.27 17.42 7.63 17.42 8.51L17.42 9.06C16.95 8.99 16.45 8.96 16.07 8.96C14.55 8.96 13.38 9.69 13.38 11.28C13.38 12.28 14.06 13.34 15.46 13.34C16.35 13.34 17.07 12.88 17.57 12.39C17.75 12.82 18.12 13.15 18.69 13.26C18.93 13.12 19.15 12.78 19.24 12.52ZM15.76 12.19C15.16 12.19 14.83 11.75 14.83 11.17C14.83 10.42 15.32 9.97 16.16 9.97C16.55 9.97 17.00 9.98 17.42 10.02L17.42 11.35C16.91 11.91 16.30 12.19 15.76 12.19ZM26.49 8.41C26.49 7.13 25.94 6.12 24.63 6.12C23.79 6.12 23.00 6.51 22.40 7.06C22.37 6.51 22.15 6.19 21.60 6.19L21.06 6.19L20.97 6.27L20.97 13.16C21.18 13.20 21.43 13.22 21.70 13.22C21.95 13.22 22.22 13.20 22.41 13.16L22.41 8.30C22.90 7.76 23.62 7.43 24.18 7.43C24.85 7.43 25.05 7.84 25.05 8.78L25.05 12.33C25.05 12.94 25.24 13.26 25.82 13.26C26.17 13.26 26.52 13.12 26.73 12.95C26.54 12.61 26.49 12.17 26.49 11.68ZM35.07 6.41C35.07 4.55 33.84 3.54 31.89 3.54C30.94 3.54 29.93 3.57 28.88 3.58L28.80 3.68L28.80 13.16C29.01 13.20 29.30 13.22 29.53 13.22C29.76 13.22 30.04 13.20 30.27 13.16L30.27 9.31L31.42 9.31C32.28 9.31 32.59 9.81 32.83 10.46L33.53 12.35C33.75 12.95 33.95 13.26 34.51 13.26C34.89 13.26 35.32 13.09 35.52 12.80C35.20 12.54 35.03 12.17 34.89 11.79L34.27 10.15C34.08 9.60 33.74 9.13 33.28 8.96C34.30 8.64 35.07 7.70 35.07 6.41ZM30.27 4.70C30.74 4.72 31.42 4.72 31.82 4.72C33.19 4.72 33.53 5.56 33.53 6.41C33.53 7.22 33.19 8.09 31.82 8.09C31.43 8.09 30.81 8.11 30.27 8.12ZM42.31 9.70C42.31 8.55 42.06 7.57 41.31 6.83C40.80 6.31 40.11 6.06 39.28 6.06C38.46 6.06 37.77 6.31 37.25 6.83C36.51 7.57 36.26 8.55 36.26 9.70C36.26 10.86 36.51 11.83 37.25 12.57C37.77 13.09 38.46 13.34 39.28 13.34C40.11 13.34 40.80 13.09 41.31 12.57C42.06 11.83 42.31 10.86 42.31 9.70ZM37.76 9.70C37.76 8.41 38.08 7.17 39.28 7.17C40.49 7.17 40.82 8.41 40.82 9.70C40.82 11.00 40.49 12.24 39.28 12.24C38.08 12.24 37.76 11.00 37.76 9.70ZM48.57 10.56C48.27 9.84 47.87 9.45 47.28 9.30C47.45 9.16 47.60 8.97 47.74 8.75L49.27 6.33L49.18 6.22C48.92 6.20 48.71 6.20 48.41 6.20C47.92 6.20 47.70 6.43 47.47 6.82L46.24 8.75C46.16 8.89 46.06 8.95 45.91 8.95L45.43 8.97L45.43 3.79C45.43 3.15 45.26 2.87 44.66 2.87L44.10 2.87L44.02 2.95L44.02 13.16C44.23 13.20 44.46 13.22 44.72 13.22C44.98 13.22 45.23 13.20 45.43 13.16L45.43 10.18C45.65 10.16 45.86 10.15 46.07 10.15C46.72 10.15 46.97 10.35 47.26 11.07L47.82 12.45C48.03 12.98 48.23 13.26 48.75 13.26C49.11 13.26 49.50 13.05 49.71 12.81C49.41 12.60 49.22 12.19 49.04 11.72ZM54.45 6.23L52.72 6.27L52.72 4.20L52.63 4.10L52.08 4.10C51.48 4.10 51.31 4.38 51.31 5.03L51.31 6.26L50.27 6.23C50.23 6.43 50.22 6.58 50.22 6.76C50.22 6.96 50.23 7.13 50.27 7.31L51.31 7.29L51.31 11.77C51.31 12.74 51.83 13.22 52.78 13.22C53.34 13.22 53.89 13.17 54.35 13.12C54.38 13.02 54.38 12.91 54.38 12.81C54.38 12.56 54.33 12.28 54.26 12.08L53.30 12.08C52.88 12.08 52.72 11.84 52.72 11.47L52.72 7.28L54.45 7.31C54.50 7.13 54.52 6.96 54.52 6.76C54.52 6.58 54.50 6.43 54.45 6.23ZM61.39 9.70C61.39 8.55 61.14 7.57 60.40 6.83C59.88 6.31 59.19 6.06 58.37 6.06C57.54 6.06 56.85 6.31 56.34 6.83C55.59 7.57 55.34 8.55 55.34 9.70C55.34 10.86 55.59 11.83 56.34 12.57C56.85 13.09 57.54 13.34 58.37 13.34C59.19 13.34 59.88 13.09 60.40 12.57C61.14 11.83 61.39 10.86 61.39 9.70ZM56.84 9.70C56.84 8.41 57.16 7.17 58.37 7.17C59.57 7.17 59.91 8.41 59.91 9.70C59.91 11.00 59.57 12.24 58.37 12.24C57.16 12.24 56.84 11.00 56.84 9.70Z"></path></g><defs data-v-fde0c5aa=""><!----></defs><g data-v-fde0c5aa="" id="db427b7b-e5f3-4da5-84cf-afc537b28a0f" stroke="none" fill="#FF1D1D" transform="matrix(0.965853056966981,0,0,0.965853056966981,23.692534392325832,101.69577249276703)"><path d="M34.444 77.329v.039h24.338a4.583 4.583 0 000-9.166 4.583 4.583 0 000-9.166 4.583 4.583 0 000-9.166h19.75a4.583 4.583 0 000-9.166H49.336v-.008H37.876l8.241-10.678a4.583 4.583 0 10-7.257-5.601L21.568 46.821a18.328 18.328 0 00-1.703 2.206l-.046.059a4.609 4.609 0 00-.525.88 18.231 18.231 0 00-2.41 9.064c0 9.866 7.796 17.888 17.56 18.299z"></path><path d="M68.75 70.268a7.122 7.122 0 0014.244 0c0-3.933-7.122-15.454-7.122-15.454S68.75 66.335 68.75 70.268z"></path></g><defs data-v-fde0c5aa=""><!----></defs><g data-v-fde0c5aa="" id="042c3ad3-ef0a-44ea-b4ca-bed5a80af958" fill="#ffffff" transform="matrix(0.4411393130097477,0,0,0.4411393130097477,116.95176358508238,161.52811805449218)"><path d="M5.29 2.21L3.98 2.21L0.04 11.48L1.20 11.48L2.34 8.79L6.93 8.79L8.06 11.48L9.23 11.48ZM2.74 7.83L4.63 3.30L6.52 7.83ZM28.43 8.18L31.56 8.18C33.53 8.18 34.75 7.03 34.75 5.19C34.75 3.37 33.53 2.21 31.56 2.21L27.38 2.21L27.38 11.48L28.43 11.48ZM31.49 3.21C32.94 3.21 33.70 3.96 33.70 5.19C33.70 6.44 32.94 7.20 31.49 7.20L28.43 7.20L28.43 3.21ZM44.23 7.92L47.45 7.92L49.69 11.48L50.93 11.48L48.50 7.74C49.53 7.50 50.74 6.90 50.74 5.11C50.74 3.35 49.52 2.21 47.61 2.21L43.18 2.21L43.18 11.48L44.23 11.48ZM44.23 3.21L47.49 3.21C48.80 3.21 49.69 3.93 49.69 5.11C49.69 6.55 48.43 6.93 47.43 6.93L44.23 6.93ZM63.66 2.10C60.84 2.10 58.95 4.21 58.95 6.85C58.95 9.48 60.84 11.59 63.66 11.59C66.47 11.59 68.36 9.48 68.36 6.85C68.36 4.21 66.47 2.10 63.66 2.10ZM63.66 10.57C61.40 10.57 60.00 8.93 60.00 6.85C60.00 4.76 61.40 3.12 63.66 3.12C65.91 3.12 67.31 4.76 67.31 6.85C67.31 8.93 65.91 10.57 63.66 10.57ZM84.84 2.21L81.58 6.61L78.26 2.21L77.04 2.21L77.04 11.48L78.09 11.48L78.09 3.81L81.58 8.22L85.01 3.81L85.01 11.48L86.06 11.48L86.06 2.21ZM96.38 2.21L95.33 2.21L95.33 11.48L96.38 11.48ZM106.26 4.65C106.26 4.03 106.62 3.08 108.72 3.08C110.42 3.08 111.20 3.82 111.31 4.75L112.39 4.75C112.31 3.36 111.19 2.10 108.72 2.10C106.40 2.10 105.24 3.15 105.24 4.66C105.24 7.84 111.58 6.69 111.58 8.96C111.58 10.05 110.60 10.60 109.03 10.60C107.42 10.60 106.12 10.05 106.05 8.71L104.96 8.71C105.10 10.37 106.22 11.59 108.96 11.59C111.24 11.59 112.63 10.64 112.63 8.92C112.63 5.68 106.26 6.80 106.26 4.65ZM128.07 3.22L128.07 2.21L121.25 2.21L121.25 11.48L128.07 11.48L128.07 10.47L122.30 10.47L122.30 7.35L127.46 7.35L127.46 6.33L122.30 6.33L122.30 3.22ZM153.33 2.21L145.81 2.21L145.81 3.22L149.04 3.22L149.04 11.48L150.09 11.48L150.09 3.22L153.33 3.22ZM165.38 2.10C162.57 2.10 160.68 4.21 160.68 6.85C160.68 9.48 162.57 11.59 165.38 11.59C168.20 11.59 170.09 9.48 170.09 6.85C170.09 4.21 168.20 2.10 165.38 2.10ZM165.38 10.57C163.13 10.57 161.73 8.93 161.73 6.85C161.73 4.76 163.13 3.12 165.38 3.12C167.64 3.12 169.04 4.76 169.04 6.85C169.04 8.93 167.64 10.57 165.38 10.57ZM189.36 4.65C189.36 4.03 189.73 3.08 191.83 3.08C193.52 3.08 194.31 3.82 194.42 4.75L195.50 4.75C195.41 3.36 194.29 2.10 191.83 2.10C189.50 2.10 188.34 3.15 188.34 4.66C188.34 7.84 194.68 6.69 194.68 8.96C194.68 10.05 193.70 10.60 192.14 10.60C190.53 10.60 189.22 10.05 189.15 8.71L188.06 8.71C188.20 10.37 189.32 11.59 192.07 11.59C194.35 11.59 195.73 10.64 195.73 8.92C195.73 5.68 189.36 6.80 189.36 4.65ZM208.52 2.21L207.20 2.21L203.27 11.48L204.43 11.48L205.56 8.79L210.15 8.79L211.29 11.48L212.45 11.48ZM205.97 7.83L207.86 3.30L209.75 7.83ZM226.49 2.21L223.29 10.29L220.08 2.21L218.93 2.21L222.68 11.48L223.89 11.48L227.64 2.21ZM242.63 3.22L242.63 2.21L235.82 2.21L235.82 11.48L242.63 11.48L242.63 10.47L236.87 10.47L236.87 7.35L242.02 7.35L242.02 6.33L236.87 6.33L236.87 3.22ZM261.31 2.21L261.31 11.48L267.41 11.48L267.41 10.47L262.36 10.47L262.36 2.21ZM276.82 2.21L275.77 2.21L275.77 11.48L276.82 11.48ZM292.56 2.21L289.35 10.29L286.15 2.21L285.00 2.21L288.75 11.48L289.95 11.48L293.71 2.21ZM308.70 3.22L308.70 2.21L301.88 2.21L301.88 11.48L308.70 11.48L308.70 10.47L302.93 10.47L302.93 7.35L308.08 7.35L308.08 6.33L302.93 6.33L302.93 3.22ZM317.90 4.65C317.90 4.03 318.26 3.08 320.36 3.08C322.06 3.08 322.84 3.82 322.95 4.75L324.03 4.75C323.95 3.36 322.83 2.10 320.36 2.10C318.04 2.10 316.88 3.15 316.88 4.66C316.88 7.84 323.22 6.69 323.22 8.96C323.22 10.05 322.24 10.60 320.67 10.60C319.06 10.60 317.76 10.05 317.69 8.71L316.60 8.71C316.74 10.37 317.86 11.59 320.60 11.59C322.88 11.59 324.27 10.64 324.27 8.92C324.27 5.68 317.90 6.80 317.90 4.65Z"></path></g></svg>