<svg data-v-423bf9ae="" xmlns="http://www.w3.org/2000/svg" viewBox="0 0 344.52720572248296 185" class="iconAboveSlogan"><!----><!----><!----><g data-v-423bf9ae="" id="7ea3c3aa-33c2-43d2-a807-8c693350d78c" fill="#ffffff" transform="matrix(5.730658879632186,0,0,5.730658879632186,-7.277931073412759,86.55300633341739)"><path d="M7.45 6.66C7.45 4.56 6.10 3.54 4.24 3.54C3.29 3.54 2.41 3.57 1.36 3.58L1.27 3.68L1.27 13.16C1.48 13.20 1.79 13.22 2.00 13.22C2.24 13.22 2.53 13.20 2.76 13.16L2.76 9.79L4.24 9.79C6.12 9.79 7.45 8.71 7.45 6.66ZM2.76 4.72C3.22 4.73 3.79 4.73 4.19 4.73C5.59 4.73 5.89 5.81 5.89 6.66C5.89 7.50 5.59 8.60 4.19 8.60C3.92 8.60 3.28 8.61 2.76 8.61ZM8.43 6.92C8.67 7.14 8.95 7.62 8.95 8.36L8.95 13.16C9.14 13.20 9.41 13.22 9.67 13.22C9.93 13.22 10.19 13.20 10.39 13.16L10.39 8.60C10.68 8.02 11.13 7.53 11.89 7.53C12.08 7.55 12.28 7.55 12.46 7.60C12.71 7.20 12.81 6.62 12.81 6.23C12.54 6.17 12.32 6.15 12.07 6.15C11.13 6.15 10.56 6.68 10.23 7.39C10.04 6.73 9.62 6.29 8.96 6.15C8.72 6.30 8.50 6.65 8.43 6.92ZM19.24 12.52C18.91 12.24 18.84 11.84 18.84 11.31L18.84 8.44C18.84 6.85 17.93 6.10 16.55 6.10C15.61 6.10 14.43 6.40 13.65 6.75C13.66 7.11 13.83 7.57 14.07 7.80C14.80 7.52 15.57 7.27 16.27 7.27C17.00 7.27 17.42 7.63 17.42 8.51L17.42 9.06C16.95 8.99 16.45 8.96 16.07 8.96C14.55 8.96 13.38 9.69 13.38 11.28C13.38 12.28 14.06 13.34 15.46 13.34C16.35 13.34 17.07 12.88 17.57 12.39C17.75 12.82 18.12 13.15 18.69 13.26C18.93 13.12 19.15 12.78 19.24 12.52ZM15.76 12.19C15.16 12.19 14.83 11.75 14.83 11.17C14.83 10.42 15.32 9.97 16.16 9.97C16.55 9.97 17.00 9.98 17.42 10.02L17.42 11.35C16.91 11.91 16.30 12.19 15.76 12.19ZM26.49 8.41C26.49 7.13 25.94 6.12 24.63 6.12C23.79 6.12 23.00 6.51 22.40 7.06C22.37 6.51 22.15 6.19 21.60 6.19L21.06 6.19L20.97 6.27L20.97 13.16C21.18 13.20 21.43 13.22 21.70 13.22C21.95 13.22 22.22 13.20 22.41 13.16L22.41 8.30C22.90 7.76 23.62 7.43 24.18 7.43C24.85 7.43 25.05 7.84 25.05 8.78L25.05 12.33C25.05 12.94 25.24 13.26 25.82 13.26C26.17 13.26 26.52 13.12 26.73 12.95C26.54 12.61 26.49 12.17 26.49 11.68ZM35.07 6.41C35.07 4.55 33.84 3.54 31.89 3.54C30.94 3.54 29.93 3.57 28.88 3.58L28.80 3.68L28.80 13.16C29.01 13.20 29.30 13.22 29.53 13.22C29.76 13.22 30.04 13.20 30.27 13.16L30.27 9.31L31.42 9.31C32.28 9.31 32.59 9.81 32.83 10.46L33.53 12.35C33.75 12.95 33.95 13.26 34.51 13.26C34.89 13.26 35.32 13.09 35.52 12.80C35.20 12.54 35.03 12.17 34.89 11.79L34.27 10.15C34.08 9.60 33.74 9.13 33.28 8.96C34.30 8.64 35.07 7.70 35.07 6.41ZM30.27 4.70C30.74 4.72 31.42 4.72 31.82 4.72C33.19 4.72 33.53 5.56 33.53 6.41C33.53 7.22 33.19 8.09 31.82 8.09C31.43 8.09 30.81 8.11 30.27 8.12ZM42.31 9.70C42.31 8.55 42.06 7.57 41.31 6.83C40.80 6.31 40.11 6.06 39.28 6.06C38.46 6.06 37.77 6.31 37.25 6.83C36.51 7.57 36.26 8.55 36.26 9.70C36.26 10.86 36.51 11.83 37.25 12.57C37.77 13.09 38.46 13.34 39.28 13.34C40.11 13.34 40.80 13.09 41.31 12.57C42.06 11.83 42.31 10.86 42.31 9.70ZM37.76 9.70C37.76 8.41 38.08 7.17 39.28 7.17C40.49 7.17 40.82 8.41 40.82 9.70C40.82 11.00 40.49 12.24 39.28 12.24C38.08 12.24 37.76 11.00 37.76 9.70ZM48.57 10.56C48.27 9.84 47.87 9.45 47.28 9.30C47.45 9.16 47.60 8.97 47.74 8.75L49.27 6.33L49.18 6.22C48.92 6.20 48.71 6.20 48.41 6.20C47.92 6.20 47.70 6.43 47.47 6.82L46.24 8.75C46.16 8.89 46.06 8.95 45.91 8.95L45.43 8.97L45.43 3.79C45.43 3.15 45.26 2.87 44.66 2.87L44.10 2.87L44.02 2.95L44.02 13.16C44.23 13.20 44.46 13.22 44.72 13.22C44.98 13.22 45.23 13.20 45.43 13.16L45.43 10.18C45.65 10.16 45.86 10.15 46.07 10.15C46.72 10.15 46.97 10.35 47.26 11.07L47.82 12.45C48.03 12.98 48.23 13.26 48.75 13.26C49.11 13.26 49.50 13.05 49.71 12.81C49.41 12.60 49.22 12.19 49.04 11.72ZM54.45 6.23L52.72 6.27L52.72 4.20L52.63 4.10L52.08 4.10C51.48 4.10 51.31 4.38 51.31 5.03L51.31 6.26L50.27 6.23C50.23 6.43 50.22 6.58 50.22 6.76C50.22 6.96 50.23 7.13 50.27 7.31L51.31 7.29L51.31 11.77C51.31 12.74 51.83 13.22 52.78 13.22C53.34 13.22 53.89 13.17 54.35 13.12C54.38 13.02 54.38 12.91 54.38 12.81C54.38 12.56 54.33 12.28 54.26 12.08L53.30 12.08C52.88 12.08 52.72 11.84 52.72 11.47L52.72 7.28L54.45 7.31C54.50 7.13 54.52 6.96 54.52 6.76C54.52 6.58 54.50 6.43 54.45 6.23ZM61.39 9.70C61.39 8.55 61.14 7.57 60.40 6.83C59.88 6.31 59.19 6.06 58.37 6.06C57.54 6.06 56.85 6.31 56.34 6.83C55.59 7.57 55.34 8.55 55.34 9.70C55.34 10.86 55.59 11.83 56.34 12.57C56.85 13.09 57.54 13.34 58.37 13.34C59.19 13.34 59.88 13.09 60.40 12.57C61.14 11.83 61.39 10.86 61.39 9.70ZM56.84 9.70C56.84 8.41 57.16 7.17 58.37 7.17C59.57 7.17 59.91 8.41 59.91 9.70C59.91 11.00 59.57 12.24 58.37 12.24C57.16 12.24 56.84 11.00 56.84 9.70Z"></path></g><!----><g data-v-423bf9ae="" id="322283f6-343e-48a8-99f4-b7f1f8a63d67" transform="matrix(1.6436544436568958,0,0,1.6436544436568958,90.702105693178,-36.568453080499324)" stroke="none" fill="#FF1D1D"><path d="M34.444 77.329v.039h24.338a4.583 4.583 0 000-9.166 4.583 4.583 0 000-9.166 4.583 4.583 0 000-9.166h19.75a4.583 4.583 0 000-9.166H49.336v-.008H37.876l8.241-10.678a4.583 4.583 0 10-7.257-5.601L21.568 46.821a18.328 18.328 0 00-1.703 2.206l-.046.059a4.609 4.609 0 00-.525.88 18.231 18.231 0 00-2.41 9.064c0 9.866 7.796 17.888 17.56 18.299z"></path><path d="M68.75 70.268a7.122 7.122 0 0014.244 0c0-3.933-7.122-15.454-7.122-15.454S68.75 66.335 68.75 70.268z"></path></g><!----><g data-v-423bf9ae="" id="9e9565a2-bb3d-4386-9ac3-cb384b30a48d" fill="#ffffff" transform="matrix(0.7765685276057559,0,0,0.7765685276057559,43.99221461093103,201.91772490991713)"><path d="M2.04 16.24L2.04 16.24Q1.37 16.04 1.11 15.85Q0.85 15.65 0.85 15.36L0.85 15.36Q0.85 15.13 0.98 14.73Q1.11 14.32 1.35 13.77Q1.60 13.22 1.94 12.54Q2.28 11.87 2.72 11.10L2.72 11.10Q2.35 11.09 2.06 11.08Q1.78 11.07 1.60 11.07L1.60 11.07Q1.68 10.86 2.07 10.71Q2.46 10.56 3.11 10.44L3.11 10.44Q3.65 9.53 4.28 8.71Q4.90 7.88 5.53 7.19Q6.16 6.50 6.79 5.97Q7.42 5.45 7.99 5.14L7.99 5.14Q8.01 5.04 8.02 4.97Q8.02 4.90 8.02 4.87L8.02 4.87Q8.22 4.87 8.55 4.97Q8.88 5.07 9.19 5.21Q9.51 5.35 9.75 5.49Q10.00 5.64 10.02 5.74L10.02 5.74Q9.56 6.55 9.11 8.17Q8.67 9.79 8.37 12.04L8.37 12.04Q8.30 12.60 8.25 13.31Q8.20 14.03 8.20 14.91L8.20 14.91Q8.20 15.22 8.20 15.54Q8.20 15.86 8.23 16.21L8.23 16.21Q8.20 16.23 8.18 16.23Q8.15 16.23 8.06 16.23L8.06 16.23Q7.87 16.23 7.61 16.16Q7.35 16.10 7.11 16.01Q6.86 15.92 6.69 15.81Q6.51 15.69 6.47 15.61L6.47 15.61Q6.45 15.43 6.45 15.25Q6.45 15.08 6.45 14.88L6.45 14.88Q6.45 14.01 6.52 13.12Q6.58 12.22 6.73 11.27L6.73 11.27Q6.54 11.26 6.22 11.23Q5.89 11.21 5.50 11.20Q5.10 11.19 4.64 11.16Q4.19 11.14 3.75 11.13L3.75 11.13Q3.42 11.76 3.12 12.38Q2.83 13.01 2.62 13.64L2.62 13.64Q2.38 14.31 2.23 14.98Q2.09 15.65 2.04 16.24ZM7.45 7.83L7.45 7.83Q7.50 7.63 7.58 7.29Q7.66 6.94 7.73 6.57L7.73 6.57Q7.38 6.69 6.95 7.03Q6.52 7.36 6.07 7.86Q5.61 8.36 5.15 8.98Q4.68 9.60 4.24 10.30L4.24 10.30Q5.42 10.21 6.92 10.18L6.92 10.18Q7.03 9.59 7.16 9.01Q7.29 8.43 7.45 7.83ZM37.27 7.63L37.27 7.63Q37.27 8.40 36.88 9.10Q36.50 9.80 35.85 10.32Q35.20 10.85 34.32 11.16Q33.45 11.47 32.47 11.47L32.47 11.47Q32.12 11.47 31.91 11.38Q31.71 11.28 31.46 11.02L31.46 11.02Q30.76 12.54 30.32 13.82Q29.88 15.11 29.62 16.31L29.62 16.31Q29.09 16.18 28.76 15.87Q28.42 15.55 28.14 15.08L28.14 15.08Q28.28 14.81 28.48 14.38Q28.67 13.94 28.95 13.31Q29.23 12.67 29.60 11.78Q29.97 10.89 30.48 9.70L30.48 9.70Q30.70 9.16 30.87 8.75Q31.04 8.34 31.16 7.99Q31.29 7.63 31.39 7.28Q31.50 6.93 31.61 6.51L31.61 6.51Q30.95 6.72 30.40 7Q29.85 7.28 29.48 7.59L29.48 7.59Q29.36 7.50 29.23 7.34Q29.09 7.17 28.98 6.96Q28.87 6.76 28.78 6.55Q28.70 6.34 28.69 6.17L28.69 6.17Q29.09 5.89 29.69 5.66Q30.30 5.42 30.98 5.24Q31.67 5.07 32.40 4.97Q33.14 4.87 33.81 4.87L33.81 4.87Q34.61 4.87 35.25 5.07Q35.90 5.28 36.34 5.64Q36.79 6.01 37.03 6.51Q37.27 7.01 37.27 7.63ZM34.78 5.95L34.78 5.95Q34.24 5.95 33.68 6.03L33.68 6.03L33.85 6.29Q33.71 6.47 33.50 6.83Q33.29 7.20 33.04 7.71Q32.79 8.22 32.49 8.85Q32.19 9.48 31.85 10.18L31.85 10.18Q32.94 10.18 33.84 9.97Q34.73 9.77 35.37 9.41Q36.01 9.06 36.37 8.58Q36.72 8.11 36.72 7.56L36.72 7.56Q36.72 6.83 36.23 6.39Q35.74 5.95 34.78 5.95ZM53.24 7.46L53.24 7.46Q53.24 8.13 52.94 8.73Q52.64 9.32 52.11 9.79Q51.58 10.26 50.86 10.58Q50.15 10.91 49.31 11.02L49.31 11.02Q49.52 11.65 49.82 12.31Q50.12 12.98 50.47 13.59Q50.82 14.21 51.20 14.73Q51.58 15.25 51.94 15.58L51.94 15.58Q51.87 15.72 51.74 15.86Q51.60 16.00 51.43 16.12Q51.25 16.24 51.06 16.32Q50.88 16.39 50.71 16.39L50.71 16.39Q50.40 16.39 50.12 16.10Q49.84 15.81 49.55 15.17Q49.27 14.53 48.95 13.52Q48.64 12.50 48.26 11.07L48.26 11.07Q48.10 11.07 47.95 11.07Q47.80 11.07 47.71 11.05L47.71 11.05Q47.61 10.99 47.50 10.85L47.50 10.85Q47.12 11.66 46.83 12.38Q46.54 13.09 46.30 13.76Q46.07 14.42 45.90 15.04Q45.72 15.67 45.60 16.31L45.60 16.31Q45.12 16.20 44.77 15.90Q44.42 15.61 44.11 15.08L44.11 15.08Q44.17 14.95 44.23 14.83Q44.30 14.71 44.39 14.50Q44.49 14.28 44.64 13.94Q44.79 13.61 45.03 13.05Q45.28 12.49 45.62 11.68Q45.96 10.86 46.45 9.70L46.45 9.70Q46.68 9.18 46.84 8.79Q47.00 8.40 47.12 8.04Q47.25 7.69 47.35 7.33Q47.46 6.97 47.57 6.51L47.57 6.51Q46.93 6.73 46.38 7.01Q45.82 7.28 45.46 7.59L45.46 7.59Q45.33 7.50 45.20 7.34Q45.07 7.17 44.95 6.96Q44.84 6.76 44.76 6.55Q44.67 6.34 44.66 6.17L44.66 6.17Q45.08 5.89 45.69 5.66Q46.30 5.42 46.98 5.24Q47.67 5.07 48.38 4.97Q49.10 4.87 49.71 4.87L49.71 4.87Q51.39 4.87 52.32 5.56Q53.24 6.26 53.24 7.46ZM49.66 6.02L49.83 6.29Q49.73 6.41 49.52 6.79Q49.31 7.17 49.03 7.69Q48.76 8.22 48.46 8.83Q48.16 9.45 47.88 10.05L47.88 10.05Q48.93 10.05 49.81 9.86Q50.69 9.66 51.34 9.30Q51.98 8.95 52.34 8.46Q52.70 7.98 52.70 7.39L52.70 7.39Q52.70 6.69 52.19 6.32Q51.69 5.95 50.64 5.95L50.64 5.95Q50.40 5.95 50.16 5.97Q49.92 5.99 49.66 6.02L49.66 6.02ZM66.74 4.98L66.74 4.98Q67.00 5.10 67.28 5.27Q67.56 5.45 67.80 5.63Q68.04 5.81 68.20 5.98Q68.36 6.16 68.38 6.27L68.38 6.27Q68.14 6.22 67.90 6.20Q67.66 6.17 67.47 6.17L67.47 6.17Q66.84 6.17 66.21 6.48Q65.59 6.79 65.03 7.32Q64.47 7.85 63.99 8.57Q63.52 9.28 63.17 10.09Q62.83 10.91 62.64 11.77Q62.44 12.64 62.44 13.48L62.44 13.48Q62.44 14.57 62.80 15.11Q63.17 15.64 63.87 15.64L63.87 15.64Q64.20 15.64 64.60 15.51Q64.99 15.37 65.39 15.13Q65.80 14.90 66.19 14.56Q66.58 14.22 66.92 13.82L66.92 13.82Q67.41 13.23 67.80 12.48Q68.19 11.73 68.47 10.89Q68.74 10.05 68.89 9.16Q69.03 8.27 69.03 7.42L69.03 7.42Q69.03 7.08 69.02 6.85Q69.01 6.62 68.98 6.46Q68.96 6.30 68.95 6.20Q68.94 6.10 68.92 6.03L68.92 6.03Q69.09 6.12 69.29 6.24Q69.50 6.36 69.67 6.59Q69.85 6.82 69.97 7.20Q70.08 7.57 70.08 8.18L70.08 8.18Q70.08 9.16 69.85 10.10Q69.62 11.05 69.21 11.90Q68.80 12.75 68.24 13.50Q67.68 14.24 67.03 14.80L67.03 14.80Q66.19 15.54 65.24 15.95Q64.29 16.35 63.41 16.35L63.41 16.35Q62.12 16.35 61.44 15.53Q60.76 14.71 60.76 13.12L60.76 13.12Q60.76 12.26 60.95 11.31Q61.14 10.36 61.48 9.44Q61.82 8.51 62.30 7.68Q62.78 6.85 63.34 6.21Q63.91 5.57 64.56 5.19Q65.21 4.82 65.90 4.82L65.90 4.82Q66.12 4.82 66.32 4.85Q66.51 4.89 66.74 4.98ZM83.19 16.21L83.19 16.21Q83.16 16.23 83.13 16.23Q83.10 16.23 83.02 16.23L83.02 16.23Q82.82 16.23 82.56 16.16Q82.31 16.10 82.06 16.01Q81.82 15.92 81.64 15.81Q81.47 15.69 81.42 15.61L81.42 15.61Q81.41 15.41 81.41 15.20Q81.41 14.99 81.41 14.80L81.41 14.80Q81.41 13.23 81.64 11.52Q81.87 9.81 82.40 7.83L82.40 7.83Q82.46 7.63 82.52 7.33Q82.59 7.03 82.66 6.68L82.66 6.68Q82.32 6.94 81.86 7.53Q81.40 8.11 80.88 8.90Q80.37 9.69 79.86 10.63Q79.35 11.58 78.93 12.55Q78.51 13.52 78.21 14.48Q77.91 15.43 77.84 16.24L77.84 16.24Q77.17 16.04 76.91 15.85Q76.65 15.65 76.65 15.37L76.65 15.37Q76.65 15.12 76.80 14.66Q76.96 14.20 77.24 13.57Q77.52 12.94 77.92 12.16Q78.33 11.38 78.82 10.49L78.82 10.49Q79.38 9.46 79.92 8.57Q80.46 7.67 80.98 6.94Q81.49 6.22 81.99 5.68Q82.49 5.15 82.98 4.87L82.98 4.87Q83.17 4.87 83.50 4.97Q83.83 5.07 84.15 5.21Q84.46 5.35 84.71 5.49Q84.95 5.64 84.98 5.74L84.98 5.74Q84.78 6.13 84.52 6.92Q84.25 7.70 83.98 8.69Q83.71 9.69 83.46 10.80Q83.22 11.91 83.08 12.94L83.08 12.94Q83.40 12.17 83.82 11.33Q84.25 10.50 84.73 9.68Q85.20 8.86 85.70 8.09Q86.20 7.32 86.67 6.69Q87.15 6.05 87.56 5.57Q87.98 5.10 88.30 4.87L88.30 4.87Q88.49 4.87 88.82 4.97Q89.15 5.07 89.47 5.21Q89.78 5.35 90.03 5.49Q90.27 5.64 90.30 5.74L90.30 5.74Q89.85 6.54 89.52 7.69Q89.18 8.83 88.95 10.09Q88.72 11.35 88.60 12.59Q88.48 13.83 88.48 14.81L88.48 14.81Q88.48 15.13 88.48 15.48Q88.48 15.83 88.51 16.21L88.51 16.21Q88.31 16.21 88.04 16.16Q87.77 16.11 87.51 16.03Q87.25 15.95 87.04 15.84Q86.83 15.74 86.74 15.61L86.74 15.61Q86.73 15.41 86.73 15.20Q86.73 14.99 86.73 14.80L86.73 14.80Q86.73 13.23 86.96 11.52Q87.19 9.81 87.72 7.83L87.72 7.83Q87.78 7.63 87.85 7.29Q87.92 6.96 87.99 6.59L87.99 6.59Q87.60 6.79 87.10 7.34Q86.60 7.90 86.09 8.69Q85.58 9.48 85.08 10.44Q84.59 11.41 84.19 12.41Q83.79 13.41 83.52 14.40Q83.24 15.39 83.19 16.21ZM97.93 14.38L97.93 14.38Q97.93 13.87 98.09 13.07Q98.25 12.26 98.51 11.33Q98.77 10.40 99.11 9.43Q99.44 8.46 99.79 7.60Q100.14 6.75 100.48 6.10Q100.81 5.46 101.08 5.18L101.08 5.18Q101.22 5.19 101.45 5.29Q101.68 5.38 101.92 5.50Q102.16 5.63 102.35 5.78Q102.55 5.92 102.61 6.05L102.61 6.05Q102.20 6.41 101.80 7.15Q101.40 7.88 101.03 8.82Q100.66 9.76 100.34 10.80Q100.02 11.84 99.78 12.82Q99.54 13.80 99.41 14.64Q99.27 15.48 99.27 16.00L99.27 16.00Q99.27 16.24 99.32 16.30L99.32 16.30Q99.01 16.28 98.87 16.19Q98.73 16.10 98.65 16.00Q98.57 15.89 98.51 15.79Q98.45 15.68 98.32 15.62L98.32 15.62Q98.22 15.58 98.15 15.43Q98.08 15.27 98.03 15.09Q97.99 14.90 97.96 14.70Q97.93 14.50 97.93 14.38ZM118.05 5.74L118.05 5.74Q118.09 5.98 118.11 6.07Q118.13 6.16 118.13 6.31L118.13 6.31Q118.13 6.78 117.93 7.18Q117.73 7.57 117.38 7.74L117.38 7.74Q117.10 7.36 116.69 7.09Q116.28 6.82 115.80 6.64Q115.32 6.47 114.80 6.38Q114.28 6.30 113.79 6.30L113.79 6.30Q113.30 6.30 112.87 6.38Q112.45 6.45 112.12 6.59Q111.79 6.72 111.60 6.92Q111.41 7.11 111.41 7.36L111.41 7.36Q111.45 7.67 111.79 7.99Q112.13 8.30 112.62 8.60Q113.11 8.90 113.70 9.20Q114.30 9.49 114.87 9.76L114.87 9.76Q115.58 10.09 116.10 10.38Q116.62 10.67 116.96 11.01Q117.29 11.35 117.46 11.79Q117.63 12.22 117.63 12.84L117.63 12.84Q117.63 13.55 117.39 14.18Q117.15 14.80 116.70 15.26Q116.24 15.72 115.60 15.98Q114.95 16.24 114.16 16.24L114.16 16.24Q113.37 16.24 112.46 16.00Q111.55 15.76 110.76 15.35Q109.97 14.94 109.44 14.40Q108.92 13.86 108.92 13.26L108.92 13.26Q108.92 12.98 109.08 12.54Q109.24 12.11 109.66 11.63L109.66 11.63Q109.70 12.05 110.12 12.63Q110.53 13.20 111.36 13.69L111.36 13.69Q112.13 14.14 112.94 14.34Q113.76 14.55 114.48 14.55L114.48 14.55Q115.26 14.55 115.75 14.35Q116.24 14.15 116.52 13.88Q116.80 13.61 116.91 13.33Q117.03 13.05 117.04 12.88L117.04 12.88Q117.03 12.60 116.78 12.34Q116.54 12.08 116.12 11.84Q115.71 11.59 115.16 11.34Q114.62 11.09 114.03 10.84L114.03 10.84Q113.15 10.44 112.51 10.10Q111.87 9.76 111.46 9.40Q111.05 9.04 110.86 8.65Q110.67 8.26 110.67 7.76L110.67 7.76Q110.67 6.97 111.15 6.27Q111.62 5.57 112.52 5.21L112.52 5.21Q112.97 5.01 113.48 4.93Q113.99 4.84 114.48 4.84L114.48 4.84Q115.40 4.84 116.28 5.10Q117.17 5.35 118.05 5.74ZM131.53 9.21L131.53 9.21Q131.99 9.21 132.25 9.46Q132.51 9.72 132.51 10.16L132.51 10.16Q132.51 10.28 132.49 10.39Q132.47 10.51 132.44 10.60L132.44 10.60Q132.26 10.57 132.03 10.55Q131.81 10.53 131.50 10.53L131.50 10.53Q130.90 10.53 130.28 10.63Q129.67 10.74 129.11 10.81L129.11 10.81Q128.79 11.55 128.52 12.24Q128.25 12.94 128.06 13.51Q127.88 14.08 127.77 14.50Q127.67 14.92 127.65 15.13L127.65 15.13Q128.79 14.90 129.94 14.73Q131.10 14.56 132.37 14.48L132.37 14.48Q132.52 14.71 132.63 14.99Q132.73 15.27 132.73 15.60L132.73 15.60Q132.73 15.68 132.73 15.78Q132.73 15.88 132.71 15.97L132.71 15.97Q132.31 15.96 131.88 15.95Q131.45 15.95 130.75 15.95L130.75 15.95Q130.28 15.95 129.87 15.97Q129.46 15.99 129.04 16.03Q128.62 16.07 128.15 16.14Q127.68 16.21 127.09 16.31L127.09 16.31Q126.45 16.06 125.85 15.08L125.85 15.08Q126.08 14.57 126.51 13.54Q126.94 12.52 127.60 10.79L127.60 10.79Q126.97 10.60 126.77 10.09L126.77 10.09Q126.84 10.02 127.18 9.92Q127.51 9.81 128.00 9.70L128.00 9.70Q128.21 9.16 128.36 8.75Q128.51 8.34 128.62 7.99Q128.73 7.63 128.82 7.29Q128.91 6.94 129.00 6.54L129.00 6.54Q128.51 6.51 128.23 6.27Q127.95 6.02 127.95 5.63L127.95 5.63Q127.95 5.52 127.98 5.36Q128.02 5.21 128.06 5.10L128.06 5.10Q128.34 5.14 128.60 5.15Q128.86 5.17 129.28 5.17L129.28 5.17Q130.16 5.17 130.93 5.12Q131.70 5.07 132.32 5.01Q132.94 4.96 133.39 4.91Q133.84 4.86 134.08 4.86L134.08 4.86Q134.40 4.86 134.65 5.19Q134.90 5.53 135.03 6.15L135.03 6.15Q134.60 6.10 134.32 6.09Q134.05 6.08 133.84 6.08L133.84 6.08Q133.07 6.08 132.43 6.15Q131.80 6.23 131.21 6.31L131.21 6.31Q131.12 6.44 131.02 6.64Q130.91 6.83 130.75 7.18Q130.58 7.53 130.33 8.06Q130.09 8.60 129.74 9.39L129.74 9.39Q130.27 9.31 130.74 9.26Q131.21 9.21 131.53 9.21ZM154.38 6.69L154.38 6.69Q153.82 6.69 153.52 6.38Q153.22 6.06 153.22 5.61L153.22 5.61Q153.22 5.50 153.25 5.35Q153.29 5.19 153.34 5.08L153.34 5.08Q153.52 5.17 153.88 5.20Q154.24 5.24 154.71 5.24L154.71 5.24Q155.43 5.24 156.33 5.17Q157.23 5.11 158.06 5.04Q158.89 4.97 159.52 4.91Q160.15 4.84 160.33 4.84L160.33 4.84Q160.85 4.84 161.08 5.23Q161.31 5.61 161.42 6.26L161.42 6.26Q161.06 6.23 160.70 6.21Q160.34 6.19 160.09 6.19L160.09 6.19Q159.64 6.19 159.19 6.22Q158.73 6.24 158.27 6.30L158.27 6.30Q158.07 6.71 157.84 7.26Q157.60 7.81 157.37 8.41Q157.14 9.02 156.93 9.61Q156.72 10.21 156.56 10.68L156.56 10.68Q156.25 11.61 156.02 12.39Q155.79 13.17 155.62 13.85Q155.44 14.53 155.32 15.15Q155.19 15.76 155.09 16.35L155.09 16.35Q154.15 16.21 153.52 15.18L153.52 15.18Q153.64 14.74 153.80 14.23Q153.96 13.72 154.17 13.07Q154.39 12.42 154.69 11.59Q154.98 10.77 155.36 9.72L155.36 9.72Q155.50 9.32 155.65 8.90Q155.81 8.47 155.95 8.05Q156.10 7.63 156.22 7.24Q156.34 6.85 156.42 6.52L156.42 6.52Q155.83 6.59 155.31 6.64Q154.78 6.69 154.38 6.69ZM173.29 4.98L173.29 4.98Q173.56 5.10 173.84 5.27Q174.12 5.45 174.36 5.63Q174.59 5.81 174.75 5.98Q174.92 6.16 174.93 6.27L174.93 6.27Q174.69 6.22 174.45 6.20Q174.22 6.17 174.02 6.17L174.02 6.17Q173.39 6.17 172.77 6.48Q172.14 6.79 171.58 7.32Q171.02 7.85 170.55 8.57Q170.07 9.28 169.73 10.09Q169.39 10.91 169.19 11.77Q168.99 12.64 168.99 13.48L168.99 13.48Q168.99 14.57 169.36 15.11Q169.72 15.64 170.42 15.64L170.42 15.64Q170.76 15.64 171.15 15.51Q171.54 15.37 171.95 15.13Q172.35 14.90 172.75 14.56Q173.14 14.22 173.47 13.82L173.47 13.82Q173.96 13.23 174.36 12.48Q174.75 11.73 175.02 10.89Q175.29 10.05 175.44 9.16Q175.59 8.27 175.59 7.42L175.59 7.42Q175.59 7.08 175.57 6.85Q175.56 6.62 175.54 6.46Q175.52 6.30 175.50 6.20Q175.49 6.10 175.48 6.03L175.48 6.03Q175.64 6.12 175.85 6.24Q176.05 6.36 176.22 6.59Q176.40 6.82 176.52 7.20Q176.64 7.57 176.64 8.18L176.64 8.18Q176.64 9.16 176.41 10.10Q176.18 11.05 175.76 11.90Q175.35 12.75 174.79 13.50Q174.23 14.24 173.59 14.80L173.59 14.80Q172.75 15.54 171.79 15.95Q170.84 16.35 169.96 16.35L169.96 16.35Q168.67 16.35 167.99 15.53Q167.31 14.71 167.31 13.12L167.31 13.12Q167.31 12.26 167.50 11.31Q167.69 10.36 168.03 9.44Q168.38 8.51 168.85 7.68Q169.33 6.85 169.90 6.21Q170.46 5.57 171.11 5.19Q171.77 4.82 172.45 4.82L172.45 4.82Q172.68 4.82 172.87 4.85Q173.07 4.89 173.29 4.98ZM203.42 5.74L203.42 5.74Q203.46 5.98 203.48 6.07Q203.50 6.16 203.50 6.31L203.50 6.31Q203.50 6.78 203.30 7.18Q203.10 7.57 202.75 7.74L202.75 7.74Q202.47 7.36 202.06 7.09Q201.66 6.82 201.17 6.64Q200.69 6.47 200.17 6.38Q199.65 6.30 199.16 6.30L199.16 6.30Q198.67 6.30 198.25 6.38Q197.82 6.45 197.49 6.59Q197.16 6.72 196.97 6.92Q196.78 7.11 196.78 7.36L196.78 7.36Q196.83 7.67 197.16 7.99Q197.50 8.30 197.99 8.60Q198.48 8.90 199.07 9.20Q199.67 9.49 200.24 9.76L200.24 9.76Q200.96 10.09 201.47 10.38Q201.99 10.67 202.33 11.01Q202.66 11.35 202.83 11.79Q203 12.22 203 12.84L203 12.84Q203 13.55 202.76 14.18Q202.52 14.80 202.07 15.26Q201.61 15.72 200.97 15.98Q200.33 16.24 199.53 16.24L199.53 16.24Q198.74 16.24 197.83 16.00Q196.92 15.76 196.13 15.35Q195.34 14.94 194.82 14.40Q194.29 13.86 194.29 13.26L194.29 13.26Q194.29 12.98 194.45 12.54Q194.61 12.11 195.03 11.63L195.03 11.63Q195.08 12.05 195.49 12.63Q195.90 13.20 196.73 13.69L196.73 13.69Q197.50 14.14 198.32 14.34Q199.14 14.55 199.85 14.55L199.85 14.55Q200.63 14.55 201.12 14.35Q201.61 14.15 201.89 13.88Q202.17 13.61 202.29 13.33Q202.40 13.05 202.41 12.88L202.41 12.88Q202.40 12.60 202.15 12.34Q201.91 12.08 201.49 11.84Q201.08 11.59 200.54 11.34Q199.99 11.09 199.40 10.84L199.40 10.84Q198.52 10.44 197.88 10.10Q197.25 9.76 196.83 9.40Q196.42 9.04 196.23 8.65Q196.04 8.26 196.04 7.76L196.04 7.76Q196.04 6.97 196.52 6.27Q196.99 5.57 197.89 5.21L197.89 5.21Q198.34 5.01 198.85 4.93Q199.36 4.84 199.85 4.84L199.85 4.84Q200.77 4.84 201.66 5.10Q202.54 5.35 203.42 5.74ZM211.75 16.24L211.75 16.24Q211.08 16.04 210.82 15.85Q210.56 15.65 210.56 15.36L210.56 15.36Q210.56 15.13 210.69 14.73Q210.81 14.32 211.06 13.77Q211.30 13.22 211.64 12.54Q211.99 11.87 212.42 11.10L212.42 11.10Q212.06 11.09 211.77 11.08Q211.48 11.07 211.30 11.07L211.30 11.07Q211.39 10.86 211.78 10.71Q212.17 10.56 212.81 10.44L212.81 10.44Q213.36 9.53 213.98 8.71Q214.61 7.88 215.24 7.19Q215.87 6.50 216.50 5.97Q217.13 5.45 217.70 5.14L217.70 5.14Q217.71 5.04 217.72 4.97Q217.73 4.90 217.73 4.87L217.73 4.87Q217.92 4.87 218.25 4.97Q218.58 5.07 218.90 5.21Q219.21 5.35 219.46 5.49Q219.70 5.64 219.73 5.74L219.73 5.74Q219.27 6.55 218.82 8.17Q218.37 9.79 218.08 12.04L218.08 12.04Q218.01 12.60 217.96 13.31Q217.91 14.03 217.91 14.91L217.91 14.91Q217.91 15.22 217.91 15.54Q217.91 15.86 217.94 16.21L217.94 16.21Q217.91 16.23 217.88 16.23Q217.85 16.23 217.77 16.23L217.77 16.23Q217.57 16.23 217.31 16.16Q217.06 16.10 216.81 16.01Q216.57 15.92 216.39 15.81Q216.22 15.69 216.17 15.61L216.17 15.61Q216.16 15.43 216.16 15.25Q216.16 15.08 216.16 14.88L216.16 14.88Q216.16 14.01 216.22 13.12Q216.29 12.22 216.44 11.27L216.44 11.27Q216.24 11.26 215.92 11.23Q215.60 11.21 215.20 11.20Q214.80 11.19 214.35 11.16Q213.89 11.14 213.46 11.13L213.46 11.13Q213.12 11.76 212.83 12.38Q212.53 13.01 212.32 13.64L212.32 13.64Q212.09 14.31 211.94 14.98Q211.79 15.65 211.75 16.24ZM217.15 7.83L217.15 7.83Q217.21 7.63 217.29 7.29Q217.36 6.94 217.43 6.57L217.43 6.57Q217.08 6.69 216.66 7.03Q216.23 7.36 215.77 7.86Q215.32 8.36 214.85 8.98Q214.38 9.60 213.95 10.30L213.95 10.30Q215.12 10.21 216.62 10.18L216.62 10.18Q216.73 9.59 216.87 9.01Q217 8.43 217.15 7.83ZM231.01 16.07L231.01 16.07Q230.69 16.24 230.33 16.24L230.33 16.24Q229.88 16.18 229.47 16.02Q229.05 15.85 228.86 15.61L228.86 15.61Q228.75 14.92 228.68 14.35Q228.61 13.78 228.56 13.27Q228.52 12.75 228.51 12.29Q228.49 11.82 228.49 11.34L228.49 11.34Q228.49 10.71 228.51 10.01Q228.52 9.31 228.54 8.52Q228.56 7.73 228.58 6.82Q228.59 5.92 228.59 4.86L228.59 4.86Q228.77 4.86 229.14 4.96Q229.50 5.07 229.86 5.21Q230.22 5.35 230.50 5.49Q230.78 5.64 230.80 5.74L230.80 5.74Q230.66 6.13 230.56 6.76Q230.45 7.39 230.39 8.16Q230.33 8.93 230.30 9.79Q230.27 10.64 230.27 11.48L230.27 11.48Q230.27 12.11 230.29 12.61Q230.30 13.10 230.32 13.50Q230.34 13.90 230.38 14.25Q230.43 14.59 230.48 14.92L230.48 14.92Q230.87 13.73 231.34 12.54Q231.81 11.35 232.31 10.25Q232.81 9.16 233.30 8.20Q233.79 7.25 234.23 6.54Q234.67 5.84 235.02 5.43Q235.37 5.01 235.59 4.98L235.59 4.98Q235.75 5.01 235.92 5.10Q236.10 5.19 236.25 5.32Q236.40 5.45 236.53 5.60Q236.66 5.75 236.73 5.91L236.73 5.91Q236.21 6.09 235.61 6.76Q235.02 7.43 234.42 8.38Q233.81 9.32 233.25 10.44Q232.68 11.55 232.22 12.61Q231.77 13.68 231.45 14.60Q231.13 15.53 231.01 16.07ZM247.98 9.21L247.98 9.21Q248.44 9.21 248.70 9.46Q248.96 9.72 248.96 10.16L248.96 10.16Q248.96 10.28 248.94 10.39Q248.92 10.51 248.89 10.60L248.89 10.60Q248.71 10.57 248.49 10.55Q248.26 10.53 247.95 10.53L247.95 10.53Q247.35 10.53 246.74 10.63Q246.12 10.74 245.56 10.81L245.56 10.81Q245.24 11.55 244.97 12.24Q244.71 12.94 244.52 13.51Q244.33 14.08 244.22 14.50Q244.12 14.92 244.10 15.13L244.10 15.13Q245.24 14.90 246.39 14.73Q247.55 14.56 248.82 14.48L248.82 14.48Q248.98 14.71 249.08 14.99Q249.19 15.27 249.19 15.60L249.19 15.60Q249.19 15.68 249.19 15.78Q249.19 15.88 249.16 15.97L249.16 15.97Q248.77 15.96 248.33 15.95Q247.90 15.95 247.20 15.95L247.20 15.95Q246.74 15.95 246.32 15.97Q245.91 15.99 245.49 16.03Q245.07 16.07 244.60 16.14Q244.13 16.21 243.54 16.31L243.54 16.31Q242.90 16.06 242.30 15.08L242.30 15.08Q242.54 14.57 242.96 13.54Q243.39 12.52 244.05 10.79L244.05 10.79Q243.42 10.60 243.22 10.09L243.22 10.09Q243.29 10.02 243.63 9.92Q243.96 9.81 244.45 9.70L244.45 9.70Q244.66 9.16 244.81 8.75Q244.96 8.34 245.07 7.99Q245.18 7.63 245.27 7.29Q245.36 6.94 245.45 6.54L245.45 6.54Q244.96 6.51 244.68 6.27Q244.40 6.02 244.40 5.63L244.40 5.63Q244.40 5.52 244.43 5.36Q244.47 5.21 244.51 5.10L244.51 5.10Q244.79 5.14 245.05 5.15Q245.31 5.17 245.73 5.17L245.73 5.17Q246.61 5.17 247.38 5.12Q248.15 5.07 248.77 5.01Q249.40 4.96 249.84 4.91Q250.29 4.86 250.53 4.86L250.53 4.86Q250.85 4.86 251.10 5.19Q251.36 5.53 251.48 6.15L251.48 6.15Q251.05 6.10 250.78 6.09Q250.50 6.08 250.29 6.08L250.29 6.08Q249.52 6.08 248.88 6.15Q248.25 6.23 247.66 6.31L247.66 6.31Q247.58 6.44 247.47 6.64Q247.37 6.83 247.20 7.18Q247.03 7.53 246.78 8.06Q246.54 8.60 246.19 9.39L246.19 9.39Q246.72 9.31 247.19 9.26Q247.66 9.21 247.98 9.21ZM273.27 14.38L273.27 14.38Q273.62 14.98 273.62 15.54L273.62 15.54Q273.62 15.67 273.60 15.77Q273.57 15.88 273.55 15.99L273.55 15.99Q273.31 15.96 273.05 15.95Q272.79 15.93 272.51 15.93L272.51 15.93Q272.17 15.93 271.83 15.95Q271.49 15.97 271.07 16.02Q270.65 16.06 270.13 16.13Q269.61 16.20 268.93 16.31L268.93 16.31Q268.60 16.20 268.28 15.87Q267.96 15.54 267.68 15.08L267.68 15.08Q267.82 14.77 268.03 14.31Q268.24 13.86 268.52 13.21Q268.80 12.56 269.14 11.68Q269.49 10.81 269.88 9.66L269.88 9.66Q270.13 8.90 270.31 8.33Q270.49 7.76 270.64 7.22Q270.79 6.68 270.93 6.09Q271.07 5.50 271.24 4.73L271.24 4.73Q271.80 4.84 272.21 5.14Q272.62 5.45 273 6.01L273 6.01Q272.89 6.19 272.71 6.59Q272.52 7 272.28 7.58Q272.03 8.16 271.74 8.90Q271.45 9.63 271.12 10.47L271.12 10.47Q270.82 11.30 270.52 12.03Q270.23 12.75 270.00 13.34Q269.77 13.93 269.63 14.35Q269.49 14.77 269.49 14.98L269.49 14.98Q269.71 14.97 269.89 14.95Q270.07 14.94 270.27 14.90Q270.47 14.87 270.70 14.82Q270.93 14.77 271.25 14.69L271.25 14.69Q271.53 14.62 271.77 14.57Q272.01 14.52 272.24 14.48Q272.47 14.45 272.71 14.43Q272.96 14.41 273.27 14.38ZM282.23 14.38L282.23 14.38Q282.23 13.87 282.39 13.07Q282.55 12.26 282.81 11.33Q283.07 10.40 283.40 9.43Q283.74 8.46 284.09 7.60Q284.44 6.75 284.77 6.10Q285.11 5.46 285.38 5.18L285.38 5.18Q285.52 5.19 285.75 5.29Q285.98 5.38 286.22 5.50Q286.45 5.63 286.65 5.78Q286.85 5.92 286.90 6.05L286.90 6.05Q286.50 6.41 286.10 7.15Q285.70 7.88 285.33 8.82Q284.96 9.76 284.63 10.80Q284.31 11.84 284.07 12.82Q283.84 13.80 283.70 14.64Q283.57 15.48 283.57 16.00L283.57 16.00Q283.57 16.24 283.61 16.30L283.61 16.30Q283.30 16.28 283.16 16.19Q283.02 16.10 282.95 16.00Q282.87 15.89 282.81 15.79Q282.74 15.68 282.62 15.62L282.62 15.62Q282.52 15.58 282.45 15.43Q282.38 15.27 282.33 15.09Q282.28 14.90 282.25 14.70Q282.23 14.50 282.23 14.38ZM297.67 16.07L297.67 16.07Q297.35 16.24 296.98 16.24L296.98 16.24Q296.53 16.18 296.12 16.02Q295.71 15.85 295.51 15.61L295.51 15.61Q295.40 14.92 295.33 14.35Q295.26 13.78 295.22 13.27Q295.18 12.75 295.16 12.29Q295.15 11.82 295.15 11.34L295.15 11.34Q295.15 10.71 295.16 10.01Q295.18 9.31 295.20 8.52Q295.22 7.73 295.23 6.82Q295.25 5.92 295.25 4.86L295.25 4.86Q295.43 4.86 295.79 4.96Q296.16 5.07 296.51 5.21Q296.87 5.35 297.15 5.49Q297.43 5.64 297.46 5.74L297.46 5.74Q297.32 6.13 297.21 6.76Q297.11 7.39 297.05 8.16Q296.98 8.93 296.95 9.79Q296.93 10.64 296.93 11.48L296.93 11.48Q296.93 12.11 296.94 12.61Q296.95 13.10 296.98 13.50Q297.00 13.90 297.04 14.25Q297.08 14.59 297.14 14.92L297.14 14.92Q297.53 13.73 298.00 12.54Q298.47 11.35 298.96 10.25Q299.46 9.16 299.95 8.20Q300.44 7.25 300.88 6.54Q301.32 5.84 301.67 5.43Q302.02 5.01 302.25 4.98L302.25 4.98Q302.40 5.01 302.58 5.10Q302.75 5.19 302.90 5.32Q303.06 5.45 303.18 5.60Q303.31 5.75 303.38 5.91L303.38 5.91Q302.86 6.09 302.27 6.76Q301.67 7.43 301.07 8.38Q300.47 9.32 299.90 10.44Q299.33 11.55 298.88 12.61Q298.42 13.68 298.10 14.60Q297.78 15.53 297.67 16.07ZM314.64 9.21L314.64 9.21Q315.10 9.21 315.36 9.46Q315.62 9.72 315.62 10.16L315.62 10.16Q315.62 10.28 315.59 10.39Q315.57 10.51 315.55 10.60L315.55 10.60Q315.36 10.57 315.14 10.55Q314.92 10.53 314.61 10.53L314.61 10.53Q314.01 10.53 313.39 10.63Q312.77 10.74 312.21 10.81L312.21 10.81Q311.89 11.55 311.63 12.24Q311.36 12.94 311.17 13.51Q310.98 14.08 310.88 14.50Q310.77 14.92 310.76 15.13L310.76 15.13Q311.89 14.90 313.05 14.73Q314.20 14.56 315.48 14.48L315.48 14.48Q315.63 14.71 315.74 14.99Q315.84 15.27 315.84 15.60L315.84 15.60Q315.84 15.68 315.84 15.78Q315.84 15.88 315.81 15.97L315.81 15.97Q315.42 15.96 314.99 15.95Q314.55 15.95 313.85 15.95L313.85 15.95Q313.39 15.95 312.98 15.97Q312.56 15.99 312.14 16.03Q311.72 16.07 311.25 16.14Q310.79 16.21 310.20 16.31L310.20 16.31Q309.55 16.06 308.95 15.08L308.95 15.08Q309.19 14.57 309.62 13.54Q310.04 12.52 310.70 10.79L310.70 10.79Q310.07 10.60 309.88 10.09L309.88 10.09Q309.95 10.02 310.28 9.92Q310.62 9.81 311.11 9.70L311.11 9.70Q311.32 9.16 311.46 8.75Q311.61 8.34 311.72 7.99Q311.84 7.63 311.93 7.29Q312.02 6.94 312.10 6.54L312.10 6.54Q311.61 6.51 311.33 6.27Q311.05 6.02 311.05 5.63L311.05 5.63Q311.05 5.52 311.09 5.36Q311.12 5.21 311.16 5.10L311.16 5.10Q311.44 5.14 311.70 5.15Q311.96 5.17 312.38 5.17L312.38 5.17Q313.26 5.17 314.03 5.12Q314.80 5.07 315.43 5.01Q316.05 4.96 316.50 4.91Q316.95 4.86 317.18 4.86L317.18 4.86Q317.51 4.86 317.76 5.19Q318.01 5.53 318.14 6.15L318.14 6.15Q317.70 6.10 317.43 6.09Q317.16 6.08 316.95 6.08L316.95 6.08Q316.18 6.08 315.54 6.15Q314.90 6.23 314.31 6.31L314.31 6.31Q314.23 6.44 314.13 6.64Q314.02 6.83 313.85 7.18Q313.68 7.53 313.44 8.06Q313.19 8.60 312.84 9.39L312.84 9.39Q313.38 9.31 313.84 9.26Q314.31 9.21 314.64 9.21ZM333.51 5.74L333.51 5.74Q333.55 5.98 333.57 6.07Q333.59 6.16 333.59 6.31L333.59 6.31Q333.59 6.78 333.39 7.18Q333.19 7.57 332.84 7.74L332.84 7.74Q332.56 7.36 332.15 7.09Q331.74 6.82 331.26 6.64Q330.78 6.47 330.26 6.38Q329.74 6.30 329.25 6.30L329.25 6.30Q328.76 6.30 328.34 6.38Q327.91 6.45 327.58 6.59Q327.25 6.72 327.06 6.92Q326.87 7.11 326.87 7.36L326.87 7.36Q326.91 7.67 327.25 7.99Q327.59 8.30 328.08 8.60Q328.57 8.90 329.16 9.20Q329.76 9.49 330.33 9.76L330.33 9.76Q331.04 10.09 331.56 10.38Q332.08 10.67 332.42 11.01Q332.75 11.35 332.92 11.79Q333.09 12.22 333.09 12.84L333.09 12.84Q333.09 13.55 332.85 14.18Q332.61 14.80 332.16 15.26Q331.70 15.72 331.06 15.98Q330.41 16.24 329.62 16.24L329.62 16.24Q328.83 16.24 327.92 16.00Q327.01 15.76 326.22 15.35Q325.43 14.94 324.91 14.40Q324.38 13.86 324.38 13.26L324.38 13.26Q324.38 12.98 324.54 12.54Q324.70 12.11 325.12 11.63L325.12 11.63Q325.16 12.05 325.58 12.63Q325.99 13.20 326.82 13.69L326.82 13.69Q327.59 14.14 328.41 14.34Q329.22 14.55 329.94 14.55L329.94 14.55Q330.72 14.55 331.21 14.35Q331.70 14.15 331.98 13.88Q332.26 13.61 332.37 13.33Q332.49 13.05 332.50 12.88L332.50 12.88Q332.49 12.60 332.24 12.34Q332.00 12.08 331.58 11.84Q331.17 11.59 330.62 11.34Q330.08 11.09 329.49 10.84L329.49 10.84Q328.61 10.44 327.97 10.10Q327.33 9.76 326.92 9.40Q326.51 9.04 326.32 8.65Q326.13 8.26 326.13 7.76L326.13 7.76Q326.13 6.97 326.61 6.27Q327.08 5.57 327.98 5.21L327.98 5.21Q328.43 5.01 328.94 4.93Q329.45 4.84 329.94 4.84L329.94 4.84Q330.86 4.84 331.74 5.10Q332.63 5.35 333.51 5.74Z"></path></g></svg>